<svg width="24" height="24" viewBox="0 0 24 24" fill="none" xmlns="http://www.w3.org/2000/svg">
    <path d="M5.46938 9.53063L2.46939 6.53063C2.39965 6.46098 2.34433 6.37826 2.30659 6.28721C2.26885 6.19616 2.24942 6.09857 2.24942 6.00001C2.24942 5.90144 2.26885 5.80385 2.30659 5.7128C2.34433 5.62175 2.39965 5.53903 2.46939 5.46938L5.46938 2.46938C5.61012 2.32865 5.80099 2.24959 6.00001 2.24959C6.19903 2.24959 6.38991 2.32865 6.53064 2.46938C6.67137 2.61011 6.75043 2.80098 6.75043 3.00001C6.75043 3.19903 6.67137 3.3899 6.53064 3.53063L4.06032 6.00001L6.53064 8.46938C6.67137 8.61011 6.75043 8.80098 6.75043 9.00001C6.75043 9.19903 6.67137 9.3899 6.53063 9.53063C6.3899 9.67136 6.19903 9.75042 6.00001 9.75042C5.80099 9.75042 5.61012 9.67136 5.46938 9.53063ZM9.21938 9.53063C9.28904 9.60036 9.37176 9.65568 9.46281 9.69342C9.55385 9.73117 9.65145 9.7506 9.75001 9.7506C9.84857 9.7506 9.94617 9.73117 10.0372 9.69342C10.1283 9.65568 10.211 9.60036 10.2806 9.53063L13.2806 6.53063C13.3504 6.46098 13.4057 6.37826 13.4434 6.28721C13.4812 6.19616 13.5006 6.09857 13.5006 6.00001C13.5006 5.90144 13.4812 5.80385 13.4434 5.7128C13.4057 5.62175 13.3504 5.53903 13.2806 5.46938L10.2806 2.46938C10.1399 2.32865 9.94903 2.24959 9.75001 2.24959C9.55099 2.24959 9.36012 2.32865 9.21938 2.46938C9.07865 2.61011 8.99959 2.80098 8.99959 3.00001C8.99959 3.19903 9.07865 3.3899 9.21938 3.53063L11.6897 6.00001L9.21938 8.46938C9.14965 8.53903 9.09433 8.62175 9.05659 8.7128C9.01885 8.80385 8.99942 8.90144 8.99942 9.00001C8.99942 9.09857 9.01885 9.19616 9.05659 9.28721C9.09433 9.37826 9.14965 9.46098 9.21938 9.53063ZM18.75 3.75001H16.5C16.3011 3.75001 16.1103 3.82902 15.9697 3.96968C15.829 4.11033 15.75 4.30109 15.75 4.50001C15.75 4.69892 15.829 4.88968 15.9697 5.03033C16.1103 5.17099 16.3011 5.25001 16.5 5.25001H18.75V18.75H5.25001V12.75C5.25001 12.5511 5.17099 12.3603 5.03034 12.2197C4.88969 12.079 4.69892 12 4.50001 12C4.3011 12 4.11033 12.079 3.96968 12.2197C3.82903 12.3603 3.75001 12.5511 3.75001 12.75V18.75C3.75001 19.1478 3.90805 19.5294 4.18935 19.8107C4.47065 20.092 4.85219 20.25 5.25001 20.25H18.75C19.1478 20.25 19.5294 20.092 19.8107 19.8107C20.092 19.5294 20.25 19.1478 20.25 18.75V5.25001C20.25 4.85218 20.092 4.47065 19.8107 4.18934C19.5294 3.90804 19.1478 3.75001 18.75 3.75001Z" fill="currentColor"/>
</svg>
