<svg width="24" height="24" viewBox="0 0 24 24" fill="currentColor" xmlns="http://www.w3.org/2000/svg">
    <path d="M8.7478 6.5625L2.62499 12L8.74405 17.4375C8.81792 17.5029 8.87819 17.5822 8.92142 17.6708C8.96465 17.7595 8.98999 17.8558 8.99599 17.9543C9.002 18.0527 8.98856 18.1514 8.95643 18.2447C8.9243 18.3379 8.87411 18.4239 8.80874 18.4978C8.74337 18.5717 8.66408 18.6319 8.57542 18.6752C8.48675 18.7184 8.39044 18.7437 8.29198 18.7498C8.19352 18.7558 8.09484 18.7423 8.00158 18.7102C7.90832 18.6781 7.8223 18.6279 7.74843 18.5625L0.998428 12.5625C0.918623 12.4921 0.854708 12.4056 0.810928 12.3086C0.767149 12.2116 0.744507 12.1064 0.744507 12C0.744507 11.8936 0.767149 11.7884 0.810928 11.6914C0.854708 11.5944 0.918623 11.5079 0.998428 11.4375L7.74843 5.4375C7.8223 5.37188 7.90837 5.32145 8.00172 5.28909C8.09508 5.25674 8.1939 5.24308 8.29253 5.24892C8.39116 5.25475 8.48768 5.27995 8.57658 5.32309C8.66547 5.36622 8.745 5.42644 8.81062 5.50031C8.87624 5.57418 8.92666 5.66025 8.95902 5.7536C8.99138 5.84696 9.00503 5.94578 8.9992 6.04441C8.99336 6.14305 8.96816 6.23956 8.92503 6.32846C8.88189 6.41735 8.82167 6.49688 8.7478 6.5625ZM22.9978 11.4375L16.2478 5.4375C16.0986 5.30547 15.9031 5.23811 15.7043 5.25024C15.5054 5.26237 15.3195 5.353 15.1875 5.50218C15.0555 5.65137 14.9881 5.84689 15.0002 6.04574C15.0124 6.24459 15.103 6.43047 15.2522 6.5625L21.375 12L15.2559 17.4375C15.1821 17.5029 15.1218 17.5822 15.0786 17.6708C15.0353 17.7595 15.01 17.8558 15.004 17.9543C14.998 18.0527 15.0114 18.1514 15.0436 18.2447C15.0757 18.3379 15.1259 18.4239 15.1912 18.4978C15.2566 18.5717 15.3359 18.6319 15.4246 18.6752C15.5132 18.7184 15.6095 18.7437 15.708 18.7498C15.8065 18.7558 15.9051 18.7423 15.9984 18.7102C16.0917 18.6781 16.1777 18.6279 16.2516 18.5625L23.0016 12.5625C23.0814 12.4921 23.1453 12.4056 23.1891 12.3086C23.2328 12.2116 23.2555 12.1064 23.2555 12C23.2555 11.8936 23.2328 11.7884 23.1891 11.6914C23.1453 11.5944 23.0814 11.5079 23.0016 11.4375H22.9978Z" fill="currentColor"/>
</svg>
